<svg xmlns="http://www.w3.org/2000/svg" version="1.1" xmlns:xlink="http://www.w3.org/1999/xlink" xmlns:svgjs="http://svgjs.com/svgjs" width="1366" height="768" preserveAspectRatio="none" viewBox="0 0 1366 768"><g mask="url(&quot;#SvgjsMask1044&quot;)" fill="none"><rect width="1366" height="768" x="0" y="0" fill="#1e3266"></rect><path d="M1411.533333333333 768L0 768 L0 464.42Q13.91 410.03, 68.3 423.94Q110.06 397.41, 136.6 439.17Q205.76 394.49, 250.43333333333334 463.65Q323.69 423.07, 364.26666666666665 496.32Q382.18 400.4, 478.09999999999997 418.32Q499.45 371.37, 546.4 392.72Q595.36 373.38, 614.6999999999999 422.34Q677.39 416.73, 682.9999999999999 479.42Q695.51 378.1, 796.8333333333333 390.61Q860.98 340.92, 910.6666666666666 405.07Q977.42 403.52, 978.9666666666666 470.27Q1011.52 388.99, 1092.8 421.54Q1157.79 372.69, 1206.6333333333332 437.68Q1252.36 415.11, 1274.9333333333332 460.84Q1321.69 439.3, 1343.2333333333331 486.05Q1345.5 420.02, 1411.533333333333 422.29z" fill="#182f5d"></path><path d="M1457.0666666666664 768L0 768 L0 539.51Q35.76 506.97, 68.3 542.73Q99.08 459.68, 182.13333333333333 490.46Q221.47 461.5, 250.43333333333334 500.83Q324.86 506.96, 318.73333333333335 581.39Q357.91 552.27, 387.03333333333336 591.45Q426.08 516.66, 500.8666666666667 555.7Q519.39 505.93, 569.1666666666666 524.45Q614.7 456.15, 683 501.69Q767.32 472.17, 796.8333333333334 556.49Q873.22 519.04, 910.6666666666667 595.43Q959.03 529.96, 1024.5 578.33Q1014.47 500, 1092.8 489.97Q1149 477.87, 1161.1 534.07Q1228.59 533.26, 1229.3999999999999 600.76Q1234.17 491.69, 1343.2333333333331 496.46Q1393.14 432.53, 1457.0666666666664 482.44z" fill="#25467d"></path><path d="M1388.7666666666664 768L0 768 L0 592.55Q30.62 554.87, 68.3 585.48Q151.74 555.09, 182.13333333333333 638.53Q233.48 576.05, 295.96666666666664 627.4Q338.7 556.3, 409.79999999999995 599.04Q507 582.4, 523.6333333333333 679.6Q572.39 660.06, 591.9333333333333 708.82Q603.11 651.7, 660.2333333333332 662.88Q679.37 568.18, 774.0666666666666 587.32Q845.29 544.71, 887.9 615.94Q929.3 589.04, 956.1999999999999 630.44Q1018.22 624.17, 1024.5 686.19Q1025.41 618.8, 1092.8 619.72Q1155.17 568.25, 1206.6333333333332 630.62Q1257.3 612.99, 1274.9333333333332 663.66Q1343.67 618.57, 1388.7666666666664 687.31z" fill="#356cb1"></path><path d="M1411.533333333333 768L0 768 L0 734.29Q30.7 651.15, 113.83333333333333 681.85Q161.1 660.82, 182.13333333333333 708.09Q250.08 662.2, 295.96666666666664 730.15Q360.98 726.86, 364.26666666666665 791.88Q374.52 733.84, 432.56666666666666 744.09Q461.99 659.68, 546.4 689.11Q586.13 660.54, 614.6999999999999 700.27Q717.42 689.16, 728.5333333333333 791.88Q733.64 683.15, 842.3666666666667 688.25Q892.51 624.56, 956.2 674.71Q1034.11 638.78, 1070.0333333333333 716.69Q1114.34 692.69, 1138.3333333333333 737Q1199.81 730.18, 1206.6333333333332 791.65Q1226.57 743.28, 1274.9333333333332 763.22Q1294.54 714.53, 1343.2333333333331 734.14Q1359.25 681.85, 1411.533333333333 697.87z" fill="rgba(190, 231, 241, 1)"></path></g><defs><mask id="SvgjsMask1044"><rect width="1366" height="768" fill="#ffffff"></rect></mask></defs></svg>